<svg xmlns="http://www.w3.org/2000/svg" xmlns:xlink="http://www.w3.org/1999/xlink" aria-hidden="true" role="img" class="iconify iconify--logos" width="31.88" height="32" preserveAspectRatio="xMidYMid meet" viewBox="0 0 256 257"><defs><linearGradient id="IconifyId1813088fe11b05f20" x1="-0.11%" x2="58.14%" y1="0%" y2="100%"><stop offset="0%" stop-color="#41D1FF"></stop><stop offset="100%" stop-color="#BD34FE"></stop></linearGradient><linearGradient id="IconifyId1813088fe11b05f21" x1="12.91%" x2="86.73%" y1="0%" y2="100%"><stop offset="0%" stop-color="#FFEA83"></stop><stop offset="8.33%" stop-color="#FFDD35"></stop><stop offset="100%" stop-color="#FFA800"></stop></linearGradient></defs><path fill="url(#IconifyId1813088fe11b05f20)" d="M255.153 37.937L134.897 252.976c-2.483 4.44-8.862 4.466-11.382.048L.875 37.958c-2.746-4.814 1.371-10.646 6.827-9.67l120.385 21.517a6.537 6.537 0 0 0 2.322-.004l117.867-21.483c5.438-.991 9.574 4.796 6.877 9.619Z"></path><path fill="url(#IconifyId1813088fe11b05f21)" d="M185.432.063L96.44 22.24a3.305 3.305 0 0 0-2.456 2.447L55.772 125.108a3.305 3.305 0 0 0 4.691 3.775l120.47-57.275a3.305 3.305 0 0 0 1.605-4.344L188.562 2.305A3.305 3.305 0 0 0 185.432.063Z"></path></svg>
